# xmcd
# 
# Track frame offsets:
#     301
#     8944
#     28583
#     53288
#     74412
#     93497
#     105807
#     125044
#     138914
#     153503
#     166056
#     183089
# 
# Disc length: 2670
# 
# Revision: 2
# Processed by: cddbd v1.5.2PL0 Copyright (c) Steve Scherf et al.
# Submitted via: fre:ac v1.0.17
# 
DISCID=8e0a6a0c
DTITLE=Moriarty - Fugitives
DYEAR=2013
DGENRE=Country
TTITLE0=Candyman
TTITLE1=Buffalo Skinners
TTITLE2=Matty Groves
TTITLE3=Le matin pas en mais
TTITLE4=Ramblin' Man
TTITLE5=Little Sadie
TTITLE6=Pretty Boy Floyd
TTITLE7=Moonshiner
TTITLE8=Down in the Willow Garden
TTITLE9=Belle
TTITLE10=The Dying Crapshooter Blues
TTITLE11=Saint James Infirmary
EXTD=
EXTT0=
EXTT1=
EXTT2=
EXTT3=
EXTT4=
EXTT5=
EXTT6=
EXTT7=
EXTT8=
EXTT9=
EXTT10=
EXTT11=
PLAYORDER=
